<?xml version="1.0" encoding="utf-8"?>
<!-- Generator: Adobe Illustrator 27.9.0, SVG Export Plug-In . SVG Version: 6.00 Build 0)  -->
<svg version="1.1" id="Capa_1" xmlns="http://www.w3.org/2000/svg" xmlns:xlink="http://www.w3.org/1999/xlink" x="0px" y="0px"
	 viewBox="0 0 841.9 595.3" style="enable-background:new 0 0 841.9 595.3;" xml:space="preserve">
<style type="text/css">
	.st0{fill:url(#SVGID_1_);}
	.st1{fill:#1DB9D9;}
	.st2{fill:#C3E5EF;}
	.st3{fill:#1B4C8D;}
	.st4{fill:#84A9D9;}
	.st5{fill:url(#SVGID_00000025421217120310065020000010280603472670742669_);}
	.st6{fill:#FFFFFF;}
	.st7{fill:#3AAA35;}
	.st8{fill:#087795;}
	.st9{fill:#00A19A;}
	.st10{fill:url(#SVGID_00000035525362841884688040000011266719918575387043_);}
	.st11{fill:#36A9E1;}
	.st12{fill:url(#SVGID_00000005969677234228614080000012838913538608428944_);}
	.st13{fill:url(#SVGID_00000058556130981304715610000005763287080146038196_);}
	.st14{fill:url(#SVGID_00000059283452797324694590000006648328743427455116_);}
	.st15{fill:url(#SVGID_00000083808542602728311930000002299193935585096628_);}
	.st16{fill:url(#SVGID_00000172421729573819585200000011642888781197301927_);}
	.st17{fill:url(#SVGID_00000116934483710307207460000016585576728771422085_);}
	.st18{fill:#3263AD;}
	.st19{fill:#9ED8F2;}
	.st20{fill:#009ED5;}
</style>
<g>
	<g>
		<linearGradient id="SVGID_1_" gradientUnits="userSpaceOnUse" x1="291.993" y1="289.3056" x2="549.8969" y2="289.3056">
			<stop  offset="2.155815e-02" style="stop-color:#009FE3"/>
			<stop  offset="0.2669" style="stop-color:#16A8E1"/>
			<stop  offset="0.3403" style="stop-color:#00A6C9"/>
			<stop  offset="0.421" style="stop-color:#00A3B0"/>
			<stop  offset="0.4852" style="stop-color:#00A2A0"/>
			<stop  offset="0.5246" style="stop-color:#00A19A"/>
			<stop  offset="0.6537" style="stop-color:#00A199"/>
			<stop  offset="0.7001" style="stop-color:#00A295"/>
			<stop  offset="0.7333" style="stop-color:#00A48E"/>
			<stop  offset="0.7601" style="stop-color:#11A683"/>
			<stop  offset="0.7828" style="stop-color:#25AA73"/>
			<stop  offset="0.7965" style="stop-color:#2FAC66"/>
			<stop  offset="1" style="stop-color:#3AAA35"/>
		</linearGradient>
		<path class="st0" d="M422.8,186.3c-2.3,1.7-4.8,3.2-7.5,4.3c0.8-0.3,1.6-0.7,2.4-1c-2.8,1.1-5.6,1.9-8.6,2.3
			c0.9-0.1,1.8-0.2,2.7-0.4c-3.4,0.4-6.8,0.4-10.2,0c0.9,0.1,1.8,0.2,2.7,0.4c-5-0.7-9.8-2.2-14.4-4.1c0.8,0.3,1.6,0.7,2.4,1
			c-6-2.5-11.6-5.8-17.1-9.3c-4-2.5-7.9-5.4-12.3-7.4c-7.2-3.4-14.6-5.4-22.5-5.9c-6.6-0.4-13.5,0.5-19.7,2.5
			c-12.9,4.3-24.4,13.2-30.7,25.4c-7,13.6-7.6,29.6-2.7,44.1c3,8.8,7.5,16.9,13.1,24.3c5.8,7.6,12.5,14.4,18.5,21.8
			c1.3,1.6,2.6,3.2,3.8,4.8c-0.5-0.7-1-1.3-1.6-2c9.3,12,17.4,24.8,24.1,38.4c1.9,3.9,3.7,7.8,5.4,11.8c-0.3-0.8-0.7-1.6-1-2.4
			c7.2,17.1,12.3,35.1,15.7,53.3c1,5.6,1.9,11.2,2.7,16.9c0.3,0.8,0.7,1.6,1,2.4c0.6,1.2,1.5,2.1,2.6,2.8c1.7,1.3,3.9,2.2,6.1,2.1
			c1.8-0.1,3.5-0.5,5-1.4c2-1.1,4.1-3.7,4.6-6c1.5-7.1,3.6-14.1,6.4-20.8c-0.3,0.8-0.7,1.6-1,2.4c3.5-8.3,8.2-16.1,13.7-23.2
			c-0.5,0.7-1,1.3-1.6,2c4.9-6.3,10.3-12.2,16.2-17.6c5.1-4.7,10.5-9.2,15.5-14.1c5.4-5.2,10.7-11,14.4-17.6
			c1.9-3.4,3.5-7.1,4.4-10.9c1-4.7,1.1-9.1,0.3-13.9c-0.7-4.2-2.4-8.4-4.5-12.1c-1.4-2.4-3-4.6-4.7-6.7c-1.4-1.7-3.2-3-5-4.4
			c-3.8-2.9-8.3-4.9-12.9-6.1c-6-1.7-12.1-1.9-18.3-0.8c-9.9,1.6-19,8.2-24.2,16.7c-5.4,8.6-6.3,19.5-2.8,29
			c1.8,4.8,4.1,9.2,7.1,13.3c3.1,4.1,6.4,8,10.1,11.6c6.3,6.2,13.2,11.8,19.1,18.5c1.4,1.6,2.7,3.2,4.1,4.9c-0.5-0.7-1-1.3-1.6-2
			c5.2,6.7,9.5,14,12.8,21.8c-0.3-0.8-0.7-1.6-1-2.4c3.5,8.3,5.7,17,6.9,25.9c-0.1-0.9-0.2-1.8-0.4-2.7c0.3,2.2,0.5,4.5,0.7,6.7
			c0.2,2.7,1,5.1,2.9,7.1c1.7,1.7,4.6,3,7.1,2.9c2.6-0.1,5.3-1,7.1-2.9c1.9-2.1,2.7-4.3,2.9-7.1c0.1-0.7,0.1-1.5,0.2-2.2
			c-0.1,0.9-0.2,1.8-0.4,2.7c0.7-5.1,2.2-10.1,4.2-14.9c-0.3,0.8-0.7,1.6-1,2.4c4.7-11.1,11.8-20.9,19.2-30.4c-0.5,0.7-1,1.3-1.6,2
			c6.7-8.6,13.4-17.2,19.9-25.9c5.4-7.2,11-14.4,16.4-21.6c6.2-8.2,12.2-16.4,17.9-24.9c5.2-7.7,10.2-15.6,14.1-24
			c1.9-4,3.7-8.1,4.9-12.4c1.3-4.4,2-8.9,2.4-13.5c0.9-8.8,0.1-18-2.3-26.6c-2.7-9.6-7.7-18.6-14.9-25.6c-3.8-3.7-8.3-6.9-13.1-9.3
			c-6.8-3.4-13.9-5.5-21.4-6.4c-6.5-0.8-13.4-0.4-19.7,1.7c-3.8,1.3-7.6,3-11.1,5.1c-7.2,4.2-13.8,9.3-20.3,14.4
			c-2.4,1.8-4.7,3.6-7.1,5.5c0.7-0.5,1.3-1,2-1.6c-9.3,7.2-18.9,14.9-29.9,19.6c0.8-0.3,1.6-0.7,2.4-1c-2.8,1.2-5.8,2.2-8.8,2.6
			c0.9-0.1,1.8-0.2,2.7-0.4c-1.7,0.2-3.5,0.3-5.2,0.1c0.9,0.1,1.8,0.2,2.7,0.4c-1-0.1-2-0.4-3-0.7c-5-1.6-11.1,1.9-12.3,7
			c-1.2,5.5,1.7,10.6,7,12.3c8.8,2.8,17.9,0.2,25.9-3.5c7.8-3.5,14.8-8.5,21.6-13.6c4.8-3.6,9.5-7.2,14.2-10.9c-0.7,0.5-1.3,1-2,1.6
			c8.2-6.4,16.7-13.3,26.4-17.4c-0.8,0.3-1.6,0.7-2.4,1c2.8-1.2,5.6-1.9,8.6-2.3c-0.9,0.1-1.8,0.2-2.7,0.4c3.7-0.5,7.4-0.4,11,0
			c-0.9-0.1-1.8-0.2-2.7-0.4c4.7,0.6,9.3,2,13.7,3.8c-0.8-0.3-1.6-0.7-2.4-1c3.7,1.6,7.1,3.5,10.3,6c-0.7-0.5-1.3-1-2-1.6
			c2.9,2.2,5.4,4.8,7.7,7.7c-0.5-0.7-1-1.3-1.6-2c2.4,3.2,4.4,6.6,6,10.3c-0.3-0.8-0.7-1.6-1-2.4c1.9,4.6,3.2,9.5,3.9,14.4
			c-0.1-0.9-0.2-1.8-0.4-2.7c0.8,5.8,0.8,11.7,0,17.5c0.1-0.9,0.2-1.8,0.4-2.7c-0.7,5.4-2.1,10.6-4.2,15.6c0.3-0.8,0.7-1.6,1-2.4
			c-5.2,12.2-12.7,23.3-20.3,34.1c-8.1,11.5-16.6,22.6-25.1,33.7c-4.2,5.5-8.3,11.1-12.5,16.6c0.5-0.7,1-1.3,1.6-2
			c-12.4,16.1-26.1,31.6-33.2,50.9c-2,5.5-3.1,11.1-3.7,16.9c6.7,0,13.3,0,20,0c-1.1-15.1-4.8-29.7-11.6-43.3
			c-6.4-12.9-15.8-24.1-26.4-33.7c-5.8-5.3-11.7-10.5-16.6-16.8c0.5,0.7,1,1.3,1.6,2c-2.4-3.2-4.5-6.6-6.1-10.3
			c0.3,0.8,0.7,1.6,1,2.4c-1-2.4-1.8-4.9-2.2-7.5c0.1,0.9,0.2,1.8,0.4,2.7c-0.2-1.9-0.2-3.9,0-5.8c-0.1,0.9-0.2,1.8-0.4,2.7
			c0.3-2,0.8-3.9,1.6-5.8c-0.3,0.8-0.7,1.6-1,2.4c0.8-2,1.9-3.8,3.2-5.5c-0.5,0.7-1,1.3-1.6,2c1.4-1.8,3-3.4,4.8-4.8
			c-0.7,0.5-1.3,1-2,1.6c1.9-1.4,3.9-2.6,6-3.5c-0.8,0.3-1.6,0.7-2.4,1c2.2-0.9,4.5-1.5,6.9-1.9c-0.9,0.1-1.8,0.2-2.7,0.4
			c2.6-0.3,5.1-0.3,7.7,0c-0.9-0.1-1.8-0.2-2.7-0.4c2.9,0.4,5.7,1.2,8.4,2.3c-0.8-0.3-1.6-0.7-2.4-1c2.3,1,4.5,2.2,6.5,3.7
			c-0.7-0.5-1.3-1-2-1.6c1.1,0.9,2.1,1.8,3,2.9c-0.5-0.7-1-1.3-1.6-2c1.9,2.5,3.5,5.1,4.8,7.9c-0.3-0.8-0.7-1.6-1-2.4
			c0.9,2.1,1.5,4.4,1.9,6.7c-0.1-0.9-0.2-1.8-0.4-2.7c0.3,2,0.3,4.1,0,6.1c0.1-0.9,0.2-1.8,0.4-2.7c-0.3,2.5-1,4.8-2,7.1
			c0.3-0.8,0.7-1.6,1-2.4c-1.5,3.4-3.5,6.5-5.7,9.4c0.5-0.7,1-1.3,1.6-2c-7.7,9.9-17.8,17.4-26.7,25.9c-5.9,5.6-11.1,11.8-16,18.3
			c-4.5,5.9-8.4,12.2-11.5,18.9c-4,8.6-7.1,17.5-9,26.8c6.4,0,12.9,0,19.3,0c-2.9-21.5-7.8-42.8-15.5-63.1
			c-7.6-19.7-17.5-38.3-30-55.3c-3.9-5.3-8-10.5-12.3-15.5c-4.3-5.1-9-9.8-13.1-15.1c0.5,0.7,1,1.3,1.6,2c-4.3-5.6-8-11.6-10.7-18
			c0.3,0.8,0.7,1.6,1,2.4c-2-4.7-3.4-9.6-4.1-14.6c0.1,0.9,0.2,1.8,0.4,2.7c-0.6-4.1-0.6-8.3-0.1-12.5c-0.1,0.9-0.2,1.8-0.4,2.7
			c0.5-3.7,1.5-7.4,3-10.8c-0.3,0.8-0.7,1.6-1,2.4c1.4-3.2,3.2-6.3,5.3-9.1c-0.5,0.7-1,1.3-1.6,2c2.2-2.8,4.7-5.3,7.5-7.5
			c-0.7,0.5-1.3,1-2,1.6c3-2.3,6.2-4.2,9.7-5.7c-0.8,0.3-1.6,0.7-2.4,1c3.7-1.6,7.6-2.6,11.5-3.2c-0.9,0.1-1.8,0.2-2.7,0.4
			c4.1-0.5,8.3-0.5,12.4,0c-0.9-0.1-1.8-0.2-2.7-0.4c4.2,0.6,8.4,1.7,12.3,3.4c-0.8-0.3-1.6-0.7-2.4-1c3.6,1.5,6.8,3.5,10,5.6
			c4,2.6,8.1,5.2,12.3,7.5c5.5,3,11.3,5.7,17.2,7.5c6,1.9,12.5,2.9,18.8,2.5c8.4-0.6,16.6-3.3,23.5-8.2c2.2-1.6,3.9-3.3,4.6-6
			c0.7-2.4,0.4-5.6-1-7.7c-1.4-2.1-3.4-4-6-4.6C428.1,184.8,425,184.8,422.8,186.3L422.8,186.3z"/>
	</g>
</g>
</svg>
